<svg width="42" height="42" viewBox="0 0 42 42" fill="none" xmlns="http://www.w3.org/2000/svg">
<path d="M4.66667 42C3.38333 42 2.28511 41.5434 1.372 40.6303C0.458889 39.7172 0.00155556 38.6182 0 37.3333V4.66667C0 3.38333 0.457333 2.28511 1.372 1.372C2.28667 0.458889 3.38489 0.00155556 4.66667 0H30.3333L42 11.6667V37.3333C42 38.6167 41.5434 39.7157 40.6303 40.6303C39.7172 41.545 38.6182 42.0015 37.3333 42H4.66667ZM9.33333 32.6667H32.6667V28H9.33333V32.6667ZM9.33333 23.3333H32.6667V18.6667H9.33333V23.3333ZM28 14H37.3333L28 4.66667V14ZM9.33333 14H21V9.33333H9.33333V14Z" fill="#FF007F"/>
</svg>
