<svg width="22" height="39" viewBox="0 0 22 39" fill="none" xmlns="http://www.w3.org/2000/svg">
<path d="M16.5 0C13.475 0 11 2.19375 11 4.875C11 7.55625 13.475 9.75 16.5 9.75C19.525 9.75 22 7.55625 22 4.875C22 2.19375 19.525 0 16.5 0ZM8.25 12.1875C3.685 12.1875 0 15.4538 0 19.5H5.5C5.5 18.135 6.71 17.0625 8.25 17.0625C9.79 17.0625 11 18.135 11 19.5C11 20.865 5.5 27.495 5.5 31.6875C5.5 35.88 9.185 39 13.75 39C18.315 39 22 35.7338 22 31.6875H16.5C16.5 33.0525 15.29 34.125 13.75 34.125C12.21 34.125 11 33.0525 11 31.6875C11 29.9325 16.5 22.7175 16.5 19.5C16.5 15.5513 12.815 12.1875 8.25 12.1875Z" fill="#FF007F"/>
</svg>
