<svg width="46" height="46" viewBox="0 0 46 46" fill="none" xmlns="http://www.w3.org/2000/svg">
<path d="M7.66666 7.66667L11.5 15.3333H17.25L13.4167 7.66667H17.25L21.0833 15.3333H26.8333L23 7.66667H26.8333L30.6667 15.3333H36.4167L32.5833 7.66667H38.3333C39.3875 7.66667 40.2902 8.04233 41.0416 8.79367C41.7929 9.545 42.1679 10.4471 42.1667 11.5V34.5C42.1667 35.5542 41.7916 36.4569 41.0416 37.2082C40.2915 37.9596 39.3888 38.3346 38.3333 38.3333H7.66666C6.61249 38.3333 5.71038 37.9583 4.96033 37.2082C4.21027 36.4582 3.83461 35.5554 3.83333 34.5V11.5C3.83333 10.4458 4.209 9.54372 4.96033 8.79367C5.71166 8.04361 6.61377 7.66794 7.66666 7.66667Z" fill="#FF007F"/>
</svg>
