<svg width="22" height="40" viewBox="0 0 22 40" fill="none" xmlns="http://www.w3.org/2000/svg">
<path id="Vector" d="M16.5 0C13.475 0 11 2.25 11 5C11 7.75 13.475 10 16.5 10C19.525 10 22 7.75 22 5C22 2.25 19.525 0 16.5 0ZM8.25 12.5C3.685 12.5 0 15.85 0 20H5.5C5.5 18.6 6.71 17.5 8.25 17.5C9.79 17.5 11 18.6 11 20C11 21.4 5.5 28.2 5.5 32.5C5.5 36.8 9.185 40 13.75 40C18.315 40 22 36.65 22 32.5H16.5C16.5 33.9 15.29 35 13.75 35C12.21 35 11 33.9 11 32.5C11 30.7 16.5 23.3 16.5 20C16.5 15.95 12.815 12.5 8.25 12.5Z" fill="#FF007F"/>
</svg>
