<svg width="46" height="46" viewBox="0 0 46 46" fill="none" xmlns="http://www.w3.org/2000/svg">
<path d="M7.66659 7.66666L11.4999 15.3333H17.2499L13.4166 7.66666H17.2499L21.0833 15.3333H26.8333L22.9999 7.66666H26.8333L30.6666 15.3333H36.4166L32.5833 7.66666H38.3333C39.3874 7.66666 40.2902 8.04232 41.0415 8.79366C41.7928 9.54499 42.1679 10.4471 42.1666 11.5V34.5C42.1666 35.5542 41.7916 36.4569 41.0415 37.2082C40.2914 37.9596 39.3887 38.3346 38.3333 38.3333H7.66659C6.61242 38.3333 5.71031 37.9583 4.96025 37.2082C4.2102 36.4582 3.83453 35.5554 3.83325 34.5V11.5C3.83325 10.4458 4.20892 9.54371 4.96025 8.79366C5.71159 8.0436 6.6137 7.66793 7.66659 7.66666Z" fill="#FF007F"/>
</svg>
